<?xml version="1.0" encoding="utf-8"?>
<!-- Generator: Adobe Illustrator 27.0.0, SVG Export Plug-In . SVG Version: 6.00 Build 0)  -->
<svg version="1.1" id="Layer_1" xmlns="http://www.w3.org/2000/svg" xmlns:xlink="http://www.w3.org/1999/xlink" x="0px" y="0px"
	 viewBox="0 0 128 128" enable-background="new 0 0 128 128" xml:space="preserve">
<rect fill="#2F3242" width="128" height="128"/>
<path fill="#A2ECFB" d="M51.4,39.5c1,0.2,1.9-0.5,2.1-1.4c0.2-1-0.5-1.9-1.4-2.1L51.4,39.5z M28.6,43.6l1.6,0.9l0,0L28.6,43.6z
	 M28.9,60.9c0.5,0.9,1.6,1.2,2.5,0.7c0.9-0.5,1.2-1.6,0.7-2.5L28.9,60.9z M37.7,66.7C37,66,35.9,66,35.2,66.6
	c-0.7,0.7-0.8,1.8-0.1,2.5L37.7,66.7z M53.7,81.7l-0.9,1.6L53.7,81.7z M96.9,89.5c0.8-0.6,1-1.7,0.5-2.5c-0.6-0.8-1.7-1-2.5-0.5
	L96.9,89.5z M52,36c-5.6-1-10.8-1.1-15.1,0c-4.3,1-7.9,3.2-9.9,6.7l3.1,1.8c1.4-2.4,4-4.1,7.6-5c3.7-0.9,8.3-0.9,13.6,0.1L52,36z
	 M27.1,42.7c-3,5.2-1.8,11.9,1.9,18.3l3.1-1.8c-3.4-5.9-4-11.1-1.9-14.7L27.1,42.7z M35,69.2c4.6,5.1,10.7,10,17.8,14.1l1.8-3.1
	c-6.8-4-12.6-8.6-17-13.4L35,69.2z M52.8,83.3c8.5,4.9,17.2,8,24.9,9.1c7.6,1.1,14.5,0.3,19.2-2.8l-2-3c-3.6,2.4-9.4,3.3-16.6,2.3
	c-7.2-1-15.4-3.9-23.6-8.7L52.8,83.3z M105.4,84.9c0-3.5-2.8-6.3-6.3-6.3v3.6c1.5,0,2.7,1.2,2.7,2.7H105.4z M99.1,78.6
	c-3.5,0-6.3,2.8-6.3,6.3h3.6c0-1.5,1.2-2.7,2.7-2.7V78.6z M92.8,84.9c0,3.5,2.8,6.3,6.3,6.3v-3.6c-1.5,0-2.7-1.2-2.7-2.7H92.8z
	 M99.1,91.2c3.5,0,6.3-2.8,6.3-6.3h-3.6c0,1.5-1.2,2.7-2.7,2.7V91.2z"/>
<path fill="#A2ECFB" d="M91.5,65.4c-0.6,0.8-0.5,1.9,0.2,2.5c0.8,0.6,1.9,0.5,2.5-0.2L91.5,65.4z M99.3,43.6l-1.6,0.9L99.3,43.6z
	 M84.5,35.2c-1,0-1.8,0.8-1.8,1.8c0,1,0.8,1.8,1.8,1.8L84.5,35.2z M74.9,39.9c1-0.2,1.6-1.2,1.4-2.1c-0.2-1-1.2-1.6-2.1-1.4
	L74.9,39.9z M53.8,46.4l0.9,1.6L53.8,46.4z M25.5,80.9c0.1,1,1.1,1.7,2,1.5c1-0.1,1.7-1.1,1.5-2L25.5,80.9z M94.2,67.7
	c3.6-4.3,6.3-8.8,7.5-13c1.2-4.3,1.1-8.4-0.9-11.9l-3.1,1.8c1.4,2.4,1.6,5.5,0.5,9.1c-1.1,3.6-3.4,7.7-6.8,11.7L94.2,67.7z
	 M100.9,42.7c-3-5.1-9.2-7.4-16.4-7.5l0,3.6c6.7,0.1,11.3,2.2,13.3,5.7L100.9,42.7z M74.2,36.4c-6.7,1.4-14.1,4.3-21.3,8.5l1.8,3.1
	c6.9-4,13.9-6.7,20.3-8.1L74.2,36.4z M52.9,44.8C44.1,49.9,37,56.1,32.1,62.4c-4.8,6.2-7.4,12.8-6.6,18.5l3.6-0.5
	c-0.6-4.3,1.4-9.9,5.9-15.8c4.5-5.9,11.3-11.8,19.7-16.6L52.9,44.8z"/>
<path fill="#A2ECFB" d="M49.1,87.2c-0.3-0.9-1.4-1.4-2.3-1.1c-0.9,0.3-1.4,1.4-1.1,2.3L49.1,87.2z M78.6,96.4c0.5-0.9,0.2-2-0.6-2.5
	c-0.9-0.5-2-0.2-2.5,0.6L78.6,96.4z M79.6,85.2c-0.3,0.9,0.2,2,1.2,2.3c0.9,0.3,2-0.2,2.3-1.2L79.6,85.2z M84.4,64.1h-1.8H84.4z
	 M69.2,22.5c-0.9-0.4-2,0-2.4,0.9c-0.4,0.9,0,2,0.9,2.4L69.2,22.5z M45.7,88.4c1.9,5.3,4.5,9.8,7.5,13.1c3.1,3.2,6.7,5.2,10.8,5.2
	v-3.6c-2.8,0-5.6-1.4-8.2-4.1c-2.6-2.7-4.9-6.8-6.7-11.8L45.7,88.4z M64,106.7c5.9,0,10.9-4.2,14.6-10.3l-3.1-1.9
	c-3.4,5.7-7.5,8.6-11.5,8.6V106.7z M83,86.3c2-6.5,3.2-14.1,3.2-22.2h-3.6c0,7.8-1.1,15-3,21.1L83,86.3z M86.2,64.1
	c0-10-1.7-19.1-4.7-26.4c-2.9-7.2-7.2-12.8-12.3-15.1l-1.5,3.3c3.9,1.8,7.7,6.3,10.5,13.2c2.7,6.8,4.4,15.5,4.4,25.1H86.2z"/>
<path fill="none" stroke="#A2ECFB" stroke-width="3.6" stroke-linecap="round" d="M103.6,84.9c0-2.5-2-4.5-4.5-4.5
	c-2.5,0-4.5,2-4.5,4.5s2,4.5,4.5,4.5C101.6,89.4,103.6,87.4,103.6,84.9L103.6,84.9z"/>
<path fill="none" stroke="#A2ECFB" stroke-width="3.6" stroke-linecap="round" d="M28.8,89.4c2.5,0,4.5-2,4.5-4.5s-2-4.5-4.5-4.5
	s-4.5,2-4.5,4.5S26.3,89.4,28.8,89.4L28.8,89.4L28.8,89.4z"/>
<ellipse fill="none" stroke="#A2ECFB" stroke-width="3.6" stroke-linecap="round" cx="64" cy="23.2" rx="4.5" ry="4.5"/>
<path fill-rule="evenodd" clip-rule="evenodd" fill="#A2ECFB" d="M64.9,68.1c-2.2,0.5-4.4-0.9-4.9-3.2c-0.5-2.2,0.9-4.4,3.1-4.9
	c2.2-0.5,4.4,0.9,4.9,3.2C68.5,65.4,67.1,67.6,64.9,68.1z"/>
<g>
	<path fill="#FFFDFD" d="M19.4,118.7h-8.7L9,124H4l8.6-24.9h5.1l8.5,24.9h-5L19.4,118.7z M11.9,114.7h6.3l-3.1-9.8H15L11.9,114.7z"
		/>
	<path fill="#FFFDFD" d="M27.3,114.9c0-2.9,0.6-5.3,1.9-7.1c1.3-1.8,3-2.7,5.3-2.7c0.9,0,1.8,0.2,2.5,0.6c0.7,0.4,1.4,1,1.9,1.7
		V97.3h5V124h-4.3l-0.4-2.3c-0.6,0.9-1.3,1.5-2.1,1.9c-0.8,0.4-1.7,0.7-2.7,0.7c-2.3,0-4-0.8-5.3-2.5c-1.3-1.7-1.9-3.9-1.9-6.6
		V114.9z M32.3,115.3c0,1.6,0.3,2.9,0.8,3.8c0.5,0.9,1.4,1.4,2.7,1.4c0.7,0,1.3-0.1,1.9-0.4c0.5-0.3,1-0.7,1.3-1.3v-7.9
		c-0.3-0.6-0.8-1-1.3-1.4c-0.5-0.3-1.1-0.5-1.9-0.5c-1.2,0-2.1,0.5-2.7,1.6c-0.6,1.1-0.8,2.5-0.8,4.3V115.3z"/>
</g>
</svg>
