<svg xmlns="http://www.w3.org/2000/svg" viewBox="0 0 147.09 102.42"><defs><style>.cls-1{fill:#ffb505;}</style></defs><g id="Layer_2" data-name="Layer 2"><g id="Layer_3" data-name="Layer 3"><path class="cls-1" d="M29.74.43h9.07c7.12,0,8.46,4.75,8.46,12.85,0,4,.61,13.14-8.68,13.14H29.74Zm5.43,22H37.8c3.31,0,4-2.49,4-9,0-4.79,0-9-3.78-9H35.17Z"/><path class="cls-1" d="M51.37,13.43c0-6.88,0-13.43,9-13.43s9,6.55,9,13.43,0,13.42-9,13.42S51.37,20.23,51.37,13.43Zm12.42,0c0-6.66-.4-9.54-3.46-9.54s-3.45,2.88-3.45,9.54S57.27,23,60.33,23,63.79,20.09,63.79,13.43Z"/><path class="cls-1" d="M73.65,26.42V.43H81l6.91,18H88V.43h5.08v26H85.89l-7.09-19h-.07v19Z"/><path class="cls-1" d="M97.56.43h4.82L99.75,7.52H96.3Z"/><path class="cls-1" d="M121.1.43V4.75h-6V26.42h-5.43V4.75h-6.05V.43Z"/><path class="cls-1" d="M29.75,64.85c-6.73,0-8-4-7.7-8.46h5.43c0,2.49.11,4.57,3.1,4.57,1.84,0,2.74-1.18,2.74-3,0-4.68-10.95-5-10.95-12.7,0-4.07,1.95-7.31,8.57-7.31,5.29,0,7.92,2.38,7.56,7.81H33.21c0-1.94-.33-3.92-2.52-3.92a2.53,2.53,0,0,0-2.81,2.77c0,4.93,10.94,4.5,10.94,12.67C38.82,64.06,33.89,64.85,29.75,64.85Z"/><path class="cls-1" d="M40.41,38.43H46l3.38,18.25h.07l4.11-18.25H60l3.89,18.25h.07l3.24-18.25h5.33l-5.76,26h-6l-4.07-19h-.07l-4.5,19h-5.9Z"/><path class="cls-1" d="M74.72,64.42v-26H88.9v4H80.15v6.4h8.06v4H80.15v7.6h9v4Z"/><path class="cls-1" d="M90.74,64.42l7.2-26h7.16l7.05,26h-5.72L105,58.66H97.58L96.1,64.42Zm10.47-21h-.07L98.66,54.67h5.18Z"/><path class="cls-1" d="M128,38.43v4.32h-6V64.42h-5.43V42.75h-6V38.43Z"/><path class="cls-1" d="M17.53,76.43v4.32H11.48v21.67H6.05V80.75H0V76.43Z"/><path class="cls-1" d="M31.89,86.83V76.43h5.44v26H31.89V90.83H25.67v11.59H20.23v-26h5.44v10.4Z"/><path class="cls-1" d="M42.05,102.42v-26H56.23v4H47.48v6.4h8.07v4H47.48v7.6h9v4Z"/><path class="cls-1" d="M79.88,86.83V76.43h5.44v26H79.88V90.83H73.65v11.59H68.22v-26h5.43v10.4Z"/><path class="cls-1" d="M90,102.42v-26h14.19v4H95.47v6.4h8.06v4H95.47v7.6h9v4Z"/><path class="cls-1" d="M106.06,102.42l7.19-26h7.17l7,26h-5.72l-1.44-5.76h-7.42l-1.47,5.76Zm10.47-21h-.07L114,92.67h5.19Z"/><path class="cls-1" d="M143.35,76.43v4.32h-6v21.67h-5.43V80.75h-6.05V76.43Z"/><path class="cls-1" d="M147.09,97.67v4.75h-4.32V97.67Z"/></g></g></svg>