<svg xmlns="http://www.w3.org/2000/svg" viewBox="0 0 144.18 102.42"><defs><style>.cls-1{fill:#fff;}</style></defs><g id="Layer_2" data-name="Layer 2"><g id="Layer_3" data-name="Layer 3"><path class="cls-1" d="M24,0h5.58l3.38,18.25H33L37.1,0h6.4l3.89,18.25h.07L50.7,0H56L50.27,26h-6L40.19,7h-.07l-4.5,19h-5.9Z"/><path class="cls-1" d="M58.27,26V0H72.45V4H63.7v6.4h8.06v4H63.7V22h9v4Z"/><path class="cls-1" d="M76.19,0H81L78.39,7.09H74.93Z"/><path class="cls-1" d="M82.17,0h5.65l4,18.9h.07L96.46,0h5.36L95,26H88.58Z"/><path class="cls-1" d="M104.27,26V0h14.19V4h-8.75v6.4h8.06v4h-8.06V22h9v4Z"/><path class="cls-1" d="M19.15,46c0-2.41-.36-4.53-3.24-4.53-3.38,0-3.38,4.57-3.38,9.61,0,8.13.79,9.57,3.89,9.57a8.66,8.66,0,0,0,2.69-.5V54.38H16.16v-4h8.39V63.56a50.81,50.81,0,0,1-7.34.86C8.06,64.42,7,60.64,7,50.78c0-6.55.32-13.21,9.22-13.21,5.32,0,8.63,3,8.31,8.42Z"/><path class="cls-1" d="M29,51c0-6.87,0-13.42,9-13.42s9,6.55,9,13.42,0,13.43-9,13.43S29,57.8,29,51Zm12.41,0c0-6.66-.39-9.53-3.45-9.53S34.52,44.33,34.52,51s.4,9.54,3.46,9.54S41.43,57.65,41.43,51Z"/><path class="cls-1" d="M66.74,38v4.32h-6V64H55.26V42.32h-6V38Z"/><path class="cls-1" d="M82,55l-6.8-17h5.94l3.89,11,4.14-11h5.54L87.48,55v9H82Z"/><path class="cls-1" d="M97,51c0-6.87,0-13.42,9-13.42s9,6.55,9,13.42,0,13.43-9,13.43S97,57.8,97,51Zm12.42,0c0-6.66-.4-9.53-3.46-9.53s-3.45,2.87-3.45,9.53.39,9.54,3.45,9.54S109.44,57.65,109.44,51Z"/><path class="cls-1" d="M136.83,38V56.43c0,3.89-2.19,8-8.82,8-6,0-8.85-3.1-8.85-8V38h5.43V56.07c0,3.2,1.37,4.46,3.35,4.46,2.38,0,3.46-1.58,3.46-4.46V38Z"/><path class="cls-1" d="M0,89c0-6.87,0-13.42,9-13.42,5.55,0,7.78,3.06,7.56,8.64H11.19c0-3.46-.61-4.75-2.23-4.75-3.06,0-3.45,2.87-3.45,9.53S5.9,98.53,9,98.53c2.52,0,2.42-3.24,2.49-5.29h5.36c0,7-2.77,9.18-7.85,9.18C0,102.42,0,95.8,0,89Z"/><path class="cls-1" d="M20,89c0-6.87,0-13.42,9-13.42s9,6.55,9,13.42,0,13.43-9,13.43S20,95.8,20,89Zm12.41,0c0-6.66-.39-9.53-3.45-9.53S25.52,82.33,25.52,89s.4,9.54,3.46,9.54S32.43,95.65,32.43,89Z"/><path class="cls-1" d="M40.18,76h5.65l4,18.9h.07L54.47,76h5.36L53,102H46.58Z"/><path class="cls-1" d="M62.28,102V76H76.46v4H67.72v6.4h8.06v4H67.72V98h9v4Z"/><path class="cls-1" d="M85.61,102H80.17V76h10c3.71,0,6.09,2.38,6.09,6.8,0,3.31-1.3,5.8-4.83,6.37v.08c1.19.14,4.72.43,4.72,5.11,0,1.65.11,6.55.61,7.63H91.47c-.72-1.59-.57-3.35-.57-5,0-3.1.29-5.72-3.89-5.72h-1.4Zm0-14.76H88c2.16,0,2.77-2.16,2.77-3.81,0-2.49-1-3.42-2.77-3.42H85.61Z"/><path class="cls-1" d="M100.3,102V76h14.18v4h-8.75v6.4h8.06v4h-8.06V98h9v4Z"/><path class="cls-1" d="M118.4,76h9.08c7.12,0,8.45,4.75,8.45,12.85,0,4,.62,13.14-8.67,13.14H118.4Zm5.44,22h2.63c3.31,0,4-2.48,4-9,0-4.78,0-9-3.78-9h-2.81Z"/><path class="cls-1" d="M144.18,97.24V102h-4.32V97.24Z"/></g></g></svg>