<svg xmlns="http://www.w3.org/2000/svg" viewBox="0 0 144.91 214.02"><defs><style>.cls-1{fill:#fff;}.cls-2{fill:#ffb505;}</style></defs><g id="Layer_2" data-name="Layer 2"><g id="Layer_3" data-name="Layer 3"><path class="cls-1" d="M14.94,21.66V0h8c3.45,0,6.3,1,6.3,5.61,0,2.49-1.23,4.29-3.69,4.77v.06c3.21.45,4.05,2.52,4.05,5.49,0,5.49-4.77,5.73-6.69,5.73ZM19.47,8.85h3c1,0,2.37-.66,2.37-2.76a2.59,2.59,0,0,0-2.61-2.76H19.47Zm0,9.48H22c1,0,3.12,0,3.12-3.06,0-1.92-.72-3.09-3-3.09H19.47Z"/><path class="cls-1" d="M33.21,21.66V0H45V3.33H37.74V8.67h6.72V12H37.74v6.33h7.53v3.33Z"/><path class="cls-1" d="M46.56,21.66,52.56,0h6l5.88,21.66H59.64l-1.2-4.8H52.26L51,21.66ZM55.29,4.17h-.06l-2.07,9.36h4.32Z"/><path class="cls-1" d="M77.64,0V3.6h-5V21.66H68.07V3.6H63V0Z"/><path class="cls-1" d="M99.3,0V3.6h-5V21.66H89.73V3.6h-5V0Z"/><path class="cls-1" d="M111.27,8.67V0h4.53V21.66h-4.53V12h-5.19v9.66h-4.53V0h4.53V8.67Z"/><path class="cls-1" d="M119.73,21.66V0h11.82V3.33h-7.29V8.67H131V12h-6.72v6.33h7.53v3.33Z"/><path class="cls-1" d="M14.74,40.67V32h4.53V53.66H14.74V44H9.55v9.66H5V32H9.55v8.67Z"/><path class="cls-1" d="M23.2,53.66V32H35v3.33H27.73v5.34h6.72V44H27.73v6.33h7.53v3.33Z"/><path class="cls-1" d="M36.55,53.66l6-21.66h6L54.4,53.66H49.63l-1.2-4.8H42.25L41,53.66Zm8.73-17.49h-.06l-2.07,9.36h4.32Z"/><path class="cls-1" d="M67.63,32v3.6h-5V53.66H58.06V35.6H53V32Z"/><path class="cls-1" d="M74.47,32h4.65l2.82,15.21H82L85.42,32h5.34L94,47.21h.06L96.76,32h4.44L96.4,53.66h-5L88,37.82h-.06L84.19,53.66H79.27Z"/><path class="cls-1" d="M103.06,53.66V32h4.53V53.66Z"/><path class="cls-1" d="M124.3,32v3.6h-5V53.66h-4.53V35.6h-5V32Z"/><path class="cls-1" d="M136.27,40.67V32h4.53V53.66h-4.53V44h-5.19v9.66h-4.53V32h4.53v8.67Z"/><path class="cls-1" d="M47.92,74.83c0-5.73,0-11.19,7.47-11.19s7.47,5.46,7.47,11.19S62.86,86,55.39,86,47.92,80.5,47.92,74.83Zm10.35,0c0-5.55-.33-8-2.88-8s-2.88,2.4-2.88,8,.33,8,2.88,8S58.27,80.38,58.27,74.83Z"/><path class="cls-1" d="M81.1,64V79.36c0,3.24-1.83,6.66-7.35,6.66-5,0-7.38-2.58-7.38-6.66V64H70.9V79.06c0,2.67,1.14,3.72,2.79,3.72,2,0,2.88-1.32,2.88-3.72V64Z"/><path class="cls-1" d="M89.23,85.66H84.7V64h8.37c3.09,0,5.07,2,5.07,5.67,0,2.76-1.08,4.83-4,5.31V75c1,.12,3.93.36,3.93,4.26,0,1.38.09,5.46.51,6.36H94.12a9.94,9.94,0,0,1-.48-4.2c0-2.58.24-4.77-3.24-4.77H89.23Zm0-12.3h2c1.8,0,2.31-1.8,2.31-3.18,0-2.07-.87-2.85-2.31-2.85h-2Z"/><path class="cls-2" d="M24,117.66V96H35.77v3.33H28.48v5.34H35.2V108H28.48v6.33H36v3.33Z"/><path class="cls-2" d="M39,117.66V96H45.1l5.76,15h.06V96h4.23v21.66h-6l-5.91-15.84h-.06v15.84Z"/><path class="cls-2" d="M59,117.66V96H70.78v3.33H63.49v5.34h6.72V108H63.49v6.33H71v3.33Z"/><path class="cls-2" d="M78.4,117.66H73.87V96h8.37c3.09,0,5.07,2,5.07,5.67,0,2.76-1.08,4.83-4,5.31V107c1,.12,3.93.36,3.93,4.26,0,1.38.09,5.46.51,6.36H83.29a9.94,9.94,0,0,1-.48-4.2c0-2.58.24-4.77-3.24-4.77H78.4Zm0-12.3h2c1.8,0,2.31-1.8,2.31-3.18,0-2.07-.87-2.85-2.31-2.85h-2Z"/><path class="cls-2" d="M100.54,102.66c0-2-.3-3.78-2.7-3.78-2.82,0-2.82,3.81-2.82,8,0,6.78.66,8,3.24,8a7.12,7.12,0,0,0,2.25-.42v-4.8H98.05v-3.33h7v11a41.39,41.39,0,0,1-6.12.72c-7.62,0-8.49-3.15-8.49-11.37,0-5.46.27-11,7.68-11,4.44,0,7.2,2.49,6.93,7Z"/><path class="cls-2" d="M113,110.16,107.29,96h4.95l3.24,9.15L118.93,96h4.62l-6.06,14.16v7.5H113Z"/><path class="cls-2" d="M3.12,149.66V128H14.94v3.33H7.65v5.34h6.72V140H7.65v6.33h7.53v3.33Z"/><path class="cls-2" d="M18,149.66V128H29.28v3.33H22.56v5.55H29v3.33H22.56v9.45Z"/><path class="cls-2" d="M31.35,149.66V128H42.6v3.33H35.88v5.55H42.3v3.33H35.88v9.45Z"/><path class="cls-2" d="M44.76,149.66V128h4.53v21.66Z"/><path class="cls-2" d="M52.89,138.83c0-5.73,0-11.19,7.47-11.19,4.62,0,6.48,2.55,6.3,7.2H62.22c0-2.88-.51-4-1.86-4-2.55,0-2.88,2.4-2.88,8s.33,7.95,2.88,7.95c2.1,0,2-2.7,2.07-4.41H66.9c0,5.79-2.31,7.65-6.54,7.65C52.89,150,52.89,144.5,52.89,138.83Z"/><path class="cls-2" d="M69.78,149.66V128h4.53v21.66Z"/><path class="cls-2" d="M78.12,149.66V128H89.94v3.33H82.65v5.34h6.72V140H82.65v6.33h7.53v3.33Z"/><path class="cls-2" d="M93.15,149.66V128h6.12L105,143h.06V128h4.23v21.66h-6l-5.91-15.84h-.06v15.84Z"/><path class="cls-2" d="M112.92,138.83c0-5.73,0-11.19,7.47-11.19,4.62,0,6.48,2.55,6.3,7.2h-4.44c0-2.88-.51-4-1.86-4-2.55,0-2.88,2.4-2.88,8s.33,7.95,2.88,7.95c2.1,0,2-2.7,2.07-4.41h4.47c0,5.79-2.31,7.65-6.54,7.65C112.92,150,112.92,144.5,112.92,138.83Z"/><path class="cls-2" d="M133.8,142.16,128.13,128h5l3.24,9.15,3.45-9.15h4.62l-6.06,14.16v7.5H133.8Z"/><path class="cls-2" d="M1.48,160H9.64c4.14,0,5.76,2.52,5.76,6.48,0,2.46-.72,6.36-6,6.36H6v8.82H1.48ZM6,169.51H8.53c1.35,0,2.28-1.47,2.28-2.91,0-1.77-.48-3.27-2.52-3.27H6Z"/><path class="cls-2" d="M22.57,181.66H18V160h8.37c3.09,0,5.07,2,5.07,5.67,0,2.76-1.08,4.83-4,5.31V171c1,.12,3.93.36,3.93,4.26,0,1.38.09,5.46.51,6.36H27.46a9.94,9.94,0,0,1-.48-4.2c0-2.58.24-4.77-3.24-4.77H22.57Zm0-12.3h2c1.8,0,2.31-1.8,2.31-3.18,0-2.07-.87-2.85-2.31-2.85h-2Z"/><path class="cls-2" d="M34.6,170.83c0-5.73,0-11.19,7.47-11.19s7.47,5.46,7.47,11.19,0,11.19-7.47,11.19S34.6,176.5,34.6,170.83Zm10.35,0c0-5.55-.33-8-2.88-8s-2.88,2.4-2.88,8,.33,7.95,2.88,7.95S45,176.38,45,170.83Z"/><path class="cls-2" d="M63,166.66c0-2-.3-3.78-2.7-3.78-2.82,0-2.82,3.81-2.82,8,0,6.78.66,8,3.24,8a7.12,7.12,0,0,0,2.25-.42v-4.8H60.55v-3.33h7v11a41.39,41.39,0,0,1-6.12.72c-7.62,0-8.49-3.15-8.49-11.37,0-5.46.27-11,7.68-11,4.44,0,7.2,2.49,6.93,7Z"/><path class="cls-2" d="M75.91,181.66H71.38V160h8.37c3.09,0,5.07,2,5.07,5.67,0,2.76-1.08,4.83-4,5.31V171c1,.12,3.93.36,3.93,4.26,0,1.38.09,5.46.51,6.36H80.8a9.94,9.94,0,0,1-.48-4.2c0-2.58.24-4.77-3.24-4.77H75.91Zm0-12.3h2c1.8,0,2.31-1.8,2.31-3.18,0-2.07-.87-2.85-2.31-2.85h-2Z"/><path class="cls-2" d="M86.5,181.66l6-21.66h6l5.88,21.66H99.58l-1.2-4.8H92.2L91,181.66Zm8.73-17.49h-.06l-2.07,9.36h4.32Z"/><path class="cls-2" d="M106.39,181.66V160h7.29l3.39,14.73h.06l3.6-14.73h7v21.66h-4.41V165h-.06l-4.17,16.71h-4.32l-4-16.71h-.06v16.71Z"/><path class="cls-2" d="M137.35,182c-5.61,0-6.66-3.3-6.42-7.05h4.53c0,2.07.09,3.81,2.58,3.81a2.17,2.17,0,0,0,2.28-2.46c0-3.9-9.12-4.14-9.12-10.59,0-3.39,1.62-6.09,7.14-6.09,4.41,0,6.6,2,6.3,6.51h-4.41c0-1.62-.27-3.27-2.1-3.27a2.11,2.11,0,0,0-2.34,2.31c0,4.11,9.12,3.75,9.12,10.56C144.91,181.36,140.8,182,137.35,182Z"/><path class="cls-2" d="M13.77,212c-1.71,1.68-3.72,2.07-6,2.07-5,0-7.74-2.34-7.74-6.57,0-2.88,2-4.71,4.26-6.18-1.14-1.47-2.4-3.18-2.4-5.43,0-2.4,2.85-4.2,6.54-4.2,2.07,0,5.49,1,5.49,4.23,0,2.82-2,4.26-3.69,5.82l3.39,4.44a13.5,13.5,0,0,0,.48-4.32h3.66c0,2.25,0,5.07-1.47,7.41l3.27,4.44H15.09Zm-7-8a4.85,4.85,0,0,0-2.19,3.51,3.05,3.05,0,0,0,3.3,3.33,4,4,0,0,0,3.3-1.44Zm3-7.74a1.72,1.72,0,0,0-1.86-1.86A1.81,1.81,0,0,0,6,196.05a5,5,0,0,0,1.59,3.12C8.64,198.51,9.75,197.55,9.75,196.2Z"/><path class="cls-2" d="M32.64,213.66H28.11V192h8.37c3.09,0,5.07,2,5.07,5.67,0,2.76-1.08,4.83-4,5.31V203c1,.12,3.93.36,3.93,4.26,0,1.38.09,5.46.51,6.36H37.53a9.94,9.94,0,0,1-.48-4.2c0-2.58.24-4.77-3.24-4.77H32.64Zm0-12.3h2c1.8,0,2.31-1.8,2.31-3.18,0-2.07-.87-2.85-2.31-2.85h-2Z"/><path class="cls-2" d="M44.88,213.66V192H56.7v3.33H49.41v5.34h6.72V204H49.41v6.33h7.53v3.33Z"/><path class="cls-2" d="M59.94,213.66V192h8c3.45,0,6.3,1,6.3,5.61,0,2.49-1.23,4.29-3.69,4.77v.06c3.21.45,4,2.52,4,5.49,0,5.49-4.77,5.73-6.69,5.73Zm4.53-12.81h3c1,0,2.37-.66,2.37-2.76a2.59,2.59,0,0,0-2.61-2.76H64.47Zm0,9.48H67c1,0,3.12,0,3.12-3.06,0-1.92-.72-3.09-3-3.09H64.47Z"/><path class="cls-2" d="M76.56,213.66l6-21.66h6l5.88,21.66H89.64l-1.2-4.8H82.26L81,213.66Zm8.73-17.49h-.06l-2.07,9.36h4.32Z"/><path class="cls-2" d="M107.64,192v3.6h-5v18.06H98.07V195.6H93V192Z"/><path class="cls-2" d="M109.74,213.66V192h11.82v3.33h-7.29v5.34H121V204h-6.72v6.33h7.53v3.33Z"/><path class="cls-2" d="M130.62,214c-5.61,0-6.66-3.3-6.42-7.05h4.53c0,2.07.09,3.81,2.58,3.81a2.17,2.17,0,0,0,2.28-2.46c0-3.9-9.12-4.14-9.12-10.59,0-3.39,1.62-6.09,7.14-6.09,4.41,0,6.6,2,6.3,6.51H133.5c0-1.62-.27-3.27-2.1-3.27a2.11,2.11,0,0,0-2.34,2.31c0,4.11,9.12,3.75,9.12,10.56C138.18,213.36,134.07,214,130.62,214Z"/><path class="cls-2" d="M144.66,209.7v4h-3.6v-4Z"/></g></g></svg>