<svg xmlns="http://www.w3.org/2000/svg" viewBox="0 0 139.36 35.15"><defs><style>.cls-1{fill:#0099dc;}.cls-2{fill:#fff;}</style></defs><g id="Layer_2" data-name="Layer 2"><g id="Layer_3" data-name="Layer 3"><rect class="cls-1" width="139.36" height="35.15"/><path class="cls-2" d="M13.47,24.67V9.56h3.16v12.6h4.73v2.51Z"/><path class="cls-2" d="M22.74,24.67V9.56H31v2.32H25.9v3.73h4.69v2.32H25.9v4.42h5.26v2.32Z"/><path class="cls-2" d="M32.06,24.67,36.24,9.56h4.17l4.1,15.11H41.18l-.83-3.35H36l-.86,3.35Zm6.09-12.2h0L36.66,19h3Z"/><path class="cls-2" d="M49.09,24.67H45.93V9.56h5.84c2.16,0,3.54,1.38,3.54,3.95,0,1.93-.75,3.37-2.81,3.71v0a2.69,2.69,0,0,1,2.75,3,21,21,0,0,0,.35,4.44H52.5a6.91,6.91,0,0,1-.33-2.93c0-1.8.17-3.33-2.26-3.33h-.82Zm0-8.58h1.4c1.26,0,1.62-1.26,1.62-2.22,0-1.45-.61-2-1.62-2h-1.4Z"/><path class="cls-2" d="M57.65,24.67V9.56h4.27l4,10.46h0V9.56h3V24.67H64.77L60.64,13.62h0V24.67Z"/><path class="cls-2" d="M76.17,24.67V9.56h5.09l2.36,10.27h0L86.18,9.56H91.1V24.67H88V13h0L85.07,24.67h-3L79.29,13h0V24.67Z"/><path class="cls-2" d="M93.52,17.11c0-4,0-7.81,5.21-7.81s5.21,3.81,5.21,7.81,0,7.81-5.21,7.81S93.52,21.07,93.52,17.11Zm7.22,0c0-3.87-.23-5.55-2-5.55s-2,1.68-2,5.55.23,5.55,2,5.55S100.74,21,100.74,17.11Z"/><path class="cls-2" d="M109.55,24.67h-3.16V9.56h5.84c2.15,0,3.54,1.38,3.54,3.95,0,1.93-.76,3.37-2.81,3.71v0a2.68,2.68,0,0,1,2.74,3,21,21,0,0,0,.36,4.44H113a6.91,6.91,0,0,1-.33-2.93c0-1.8.16-3.33-2.27-3.33h-.81Zm0-8.58H111c1.26,0,1.61-1.26,1.61-2.22,0-1.45-.6-2-1.61-2h-1.4Z"/><path class="cls-2" d="M118.09,24.67V9.56h8.24v2.32h-5.08v3.73h4.69v2.32h-4.69v4.42h5.25v2.32Z"/></g></g></svg>