<svg xmlns="http://www.w3.org/2000/svg" viewBox="0 0 159.9 78.52"><defs><style>.cls-1{fill:#fff;}.cls-2{fill:#0197da;}</style></defs><g id="Layer_2" data-name="Layer 2"><g id="Layer_3" data-name="Layer 3"><rect class="cls-1" width="159.9" height="78.52"/><polygon points="44.93 61.45 48.88 43.07 57.75 43.07 57.1 46.11 51.87 46.11 50.97 50.29 56.07 50.29 55.41 53.33 50.32 53.33 49.23 58.43 54.67 58.43 54.02 61.45 44.93 61.45 44.93 61.45"/><path d="M88.6,57.78c0,.89.31,1.46,1,1.46,1.27,0,1.76-1.47,2.39-4.45a20,20,0,0,0,.63-3.54c0-.89-.16-1.5-1.09-1.5-1.31,0-1.7,1.44-2.35,4.52a20,20,0,0,0-.62,3.51ZM97.05,47.5S94.36,59.88,93.7,62.85c-.61,2.7-2.61,4.36-5.76,4.36-2.44,0-3.84-1.06-3.84-3.07a7,7,0,0,1,.13-1.06H87.5a2.43,2.43,0,0,0,0,1.42,1.05,1.05,0,0,0,1.08.54c.88,0,1.48-.9,1.78-2.32l.49-2.35h0a3.18,3.18,0,0,1-2.94,1.29c-1.93,0-2.65-1.47-2.65-3.09a34.92,34.92,0,0,1,1.62-7.87c.9-2.11,2.16-3.41,4.11-3.41,1.25,0,2.21.46,2.43,1.77h.14l.29-1.56Z"/><polygon points="97.96 62.04 97.58 47.5 101.09 47.5 100.7 57.67 100.75 57.67 104.66 47.49 108.24 47.49 99.05 66.8 95.54 66.8 97.96 62.04 97.96 62.04"/><path d="M44.65,31.55a37.07,37.07,0,0,1,2.27-10.88C48,18,50.21,16.83,53.51,16.83c2.69,0,4.23,1.3,4.23,3.63a14.86,14.86,0,0,1-.48,3.22H53.81a14.14,14.14,0,0,0,.32-2.59,1.21,1.21,0,0,0-1.37-1.27c-1.44,0-2,.92-2.56,2.39a38,38,0,0,0-1.75,9c0,1.08.51,1.58,1.61,1.58,1.87,0,2.23-2.15,2.67-4.11h3.53c-.76,4.83-2.83,7.07-6.87,7.07-3.1,0-4.74-1.42-4.74-4.21Z"/><path d="M64.32,26.92a9.55,9.55,0,0,0,.29-2c0-.68-.3-1.35-1.22-1.35-1.69,0-2.07,2.11-2.33,3.3ZM60.61,29a12.45,12.45,0,0,0-.41,2.49c0,.94.33,1.68,1.16,1.68,1.25,0,1.78-1.32,2-2.49h3.43c-1,3.8-3,5-6,5-2.8,0-4-1.57-4-3.65a14.43,14.43,0,0,1,.46-3.63c.81-3.83,2-7.11,6.66-7.11,2.51,0,4,1.21,4,3.72a18.64,18.64,0,0,1-.66,4Z"/><path d="M92.23,26.92a9.55,9.55,0,0,0,.29-2c0-.68-.3-1.35-1.22-1.35-1.69,0-2.07,2.11-2.33,3.3ZM88.52,29a12.45,12.45,0,0,0-.41,2.49c0,.94.33,1.68,1.16,1.68,1.25,0,1.77-1.32,2-2.49h3.43c-1,3.8-3,5-6,5-2.8,0-4-1.57-4-3.65a14.91,14.91,0,0,1,.45-3.63c.82-3.83,2-7.11,6.67-7.11,2.51,0,4,1.21,4,3.72a18.64,18.64,0,0,1-.66,4Z"/><path d="M74.56,53a9.45,9.45,0,0,0,.3-1.95,1.18,1.18,0,0,0-1.22-1.34c-1.7,0-2.08,2.1-2.33,3.29Zm-3.71,2.12a13.18,13.18,0,0,0-.41,2.5c0,.93.33,1.67,1.17,1.67,1.25,0,1.77-1.32,2-2.49h3.43c-1,3.81-3,5-6,5-2.8,0-4-1.57-4-3.65a14.37,14.37,0,0,1,.46-3.63c.82-3.84,2-7.12,6.67-7.12,2.5,0,4,1.21,4,3.72a17.81,17.81,0,0,1-.65,4Z"/><path d="M73.12,23h.1a3.73,3.73,0,0,1,3.24-1.69A2.29,2.29,0,0,1,79,23.6a3.65,3.65,0,0,1-.09.77l-2.33,11H73.11l2-9.46a5.68,5.68,0,0,0,.15-1.14c0-.64-.23-1.06-1-1.06-1.18,0-1.53.88-1.81,2.2l-2,9.46h-3.4l3-13.86h3.37L73.12,23Z"/><path d="M135.68,23h.1A3.71,3.71,0,0,1,139,21.28a2.29,2.29,0,0,1,2.52,2.32,3.6,3.6,0,0,1-.08.77l-2.33,11h-3.47l2.06-9.46a5.68,5.68,0,0,0,.15-1.14c0-.64-.24-1.06-1-1.06-1.19,0-1.53.88-1.81,2.2L133,35.38h-3.39l3-13.86H136L135.68,23Z"/><path d="M61.21,49h.1a3.73,3.73,0,0,1,3.24-1.69,2.29,2.29,0,0,1,2.53,2.32,3.58,3.58,0,0,1-.09.77l-2.33,11H61.2l2-9.46a5.68,5.68,0,0,0,.15-1.14c0-.64-.23-1.06-1-1.06-1.18,0-1.53.88-1.81,2.2l-2,9.46H55.17l3-13.86h3.37L61.21,49Z"/><path d="M81.65,19.34l3.8-1.7-.83,3.87h1.75l-.5,2.36H84.11L82.35,32a2,2,0,0,0,0,.39c0,.48.33.7,1.08.7A2.55,2.55,0,0,0,84,33l-.52,2.39a13.8,13.8,0,0,1-1.91.14c-1.89,0-2.84-.88-2.84-2.51a4.14,4.14,0,0,1,.1-.87l2.79-12.8Z"/><path d="M144,19.34l3.8-1.7L147,21.51h1.75l-.5,2.36h-1.77L144.73,32a1.43,1.43,0,0,0,0,.39c0,.48.33.7,1.08.7a2.47,2.47,0,0,0,.63-.08l-.51,2.39a14.1,14.1,0,0,1-1.92.14c-1.89,0-2.84-.88-2.84-2.51a4.93,4.93,0,0,1,.1-.87l2.8-12.8Z"/><path d="M101.14,21.52l-.41,1.84h.13a3.48,3.48,0,0,1,3.49-2l-.72,3.34-.47,0a2.77,2.77,0,0,0-3,2.49L98.41,35.4H95l3-13.88Z"/><path d="M83.68,47.56l-.41,1.84h.13a3.48,3.48,0,0,1,3.49-2l-.72,3.34-.47,0a2.76,2.76,0,0,0-3,2.49l-1.75,8.24H77.5l3-13.87Z"/><path d="M107.94,25.82h1.29c2,0,2.9-2.35,2.9-4.32,0-1.22-.49-1.71-1.54-1.71h-1.28l-1.37,6ZM106.24,17h5.22c3,0,4.25,1.65,4.25,3.89a8.13,8.13,0,0,1-.39,2.66c-.78,3-2.44,5.15-5.75,5.15h-2.18L106,35.38h-3.63L106.24,17Z"/><path d="M121.22,29.37a22.54,22.54,0,0,0,.82-4.18c0-.63-.13-1.48-1.16-1.48-1.77,0-2,2-2.59,4.14a14.91,14.91,0,0,0-.68,3.83c0,1.07.42,1.5,1.21,1.5,1.55,0,2-2.07,2.4-3.81Zm-7,2.79a22.27,22.27,0,0,1,.83-5c1.14-3.75,2.36-5.83,6.09-5.83,3,0,4.13,1.3,4.13,3.62a22.45,22.45,0,0,1-.66,4.24c-1,4.07-2.36,6.53-6.42,6.53-2.59,0-4-1.21-4-3.51Z"/><path d="M132,17.05l-.65,3H128l.65-3Zm-4,18.36h-3.41l3-13.91h3.4l-3,13.91Z"/><path class="cls-2" d="M22.47,39.34H37.19a14.74,14.74,0,1,0,0,.91H22.47v-.91Z"/><path class="cls-2" d="M112.09,39.34H37.19c0,.15,0,.29,0,.43s0,.32,0,.48h74.37l.53-.91Z"/><path d="M149.89,33.07c.38,0,.47-.17.47-.37s-.09-.28-.41-.28h-.48v.65Zm-.42.4v1.1h-.4V32h.83c.47,0,.95.12.95.7a.59.59,0,0,1-.52.6h0c.36.07.4.22.44.5a3.14,3.14,0,0,0,.15.74h-.51c0-.14-.07-.3-.09-.45a1.06,1.06,0,0,0-.14-.55.52.52,0,0,0-.37-.1Zm2.25-.15a1.79,1.79,0,1,0-1.79,1.8,1.79,1.79,0,0,0,1.79-1.8Zm-4,0a2.17,2.17,0,1,1,2.17,2.18,2.17,2.17,0,0,1-2.17-2.18Z"/></g></g></svg>